<svg width="12" height="10" viewBox="0 0 12 10" fill="none" xmlns="http://www.w3.org/2000/svg">
<path d="M11.765 5.26505L7.265 9.76505C7.19391 9.83129 7.09989 9.86735 7.00274 9.86563C6.90559 9.86392 6.8129 9.82456 6.74419 9.75586C6.67548 9.68715 6.63613 9.59446 6.63441 9.49731C6.6327 9.40016 6.66876 9.30613 6.735 9.23505L10.5944 5.37505H0.5C0.400544 5.37505 0.305161 5.33554 0.234835 5.26521C0.164509 5.19488 0.125 5.0995 0.125 5.00005C0.125 4.90059 0.164509 4.80521 0.234835 4.73488C0.305161 4.66455 0.400544 4.62505 0.5 4.62505H10.5944L6.735 0.765045C6.66876 0.693958 6.6327 0.599935 6.63441 0.502784C6.63613 0.405633 6.67548 0.312941 6.74419 0.244234C6.8129 0.175528 6.90559 0.136172 7.00274 0.134458C7.09989 0.132744 7.19391 0.168805 7.265 0.235045L11.765 4.73505C11.8352 4.80536 11.8747 4.90067 11.8747 5.00005C11.8747 5.09942 11.8352 5.19473 11.765 5.26505Z" fill="#888888"/>
</svg>
