<svg width="100" height="40" viewBox="0 0 100 40" fill="none" xmlns="http://www.w3.org/2000/svg">
<path d="M0 0.5H9.06888C13.2014 0.5 16.1977 1.09212 18.058 2.27636C19.9316 3.44729 20.8684 5.31679 20.8684 7.88485C20.8684 9.62794 20.4565 11.0583 19.6326 12.176C18.8221 13.2938 17.7391 13.9657 16.3838 14.1919V14.3915C18.2308 14.804 19.5595 15.5757 20.3701 16.7068C21.1939 17.8378 21.6059 19.3414 21.6059 21.2175C21.6059 23.8787 20.6425 25.9545 18.7158 27.4447C16.8023 28.935 14.1979 29.6801 10.9026 29.6801H0V0.5ZM6.17879 12.0563H9.76648C11.4407 12.0563 12.6499 11.7968 13.394 11.2779C14.1514 10.759 14.5301 9.90072 14.5301 8.70317C14.5301 7.58547 14.1182 6.7871 13.2944 6.30809C12.4838 5.81576 11.1949 5.5696 9.42764 5.5696H6.17879V12.0563ZM6.17879 16.9662V24.5706H10.205C11.9058 24.5706 13.1615 24.2446 13.972 23.5926C14.7826 22.9406 15.1879 21.9427 15.1879 20.5988C15.1879 18.1771 13.4605 16.9662 10.0057 16.9662H6.17879Z" fill="#050505"/>
<path d="M41.9169 29.6801L41.0997 26.826H40.7808C40.1297 27.8639 39.2062 28.6689 38.0103 29.241C36.8145 29.7999 35.4525 30.0793 33.9244 30.0793C31.3067 30.0793 29.3335 29.3808 28.0047 27.9836C26.6759 26.5732 26.0115 24.5507 26.0115 21.9161V7.36592H32.0907V20.3992C32.0907 22.0092 32.3764 23.2201 32.9477 24.0317C33.5191 24.8301 34.4293 25.2293 35.6784 25.2293C37.3792 25.2293 38.6083 24.6638 39.3657 23.5328C40.1231 22.3884 40.5018 20.499 40.5018 17.8644V7.36592H46.5809V29.6801H41.9169Z" fill="#050505"/>
<path d="M71.5361 7.36592V10.4596L68.0481 11.3577C68.6859 12.3557 69.0048 13.4734 69.0048 14.7108C69.0048 17.1059 68.1676 18.9754 66.4934 20.3193C64.8324 21.6499 62.5204 22.3153 59.5572 22.3153L58.461 22.2554L57.564 22.1556C56.9395 22.6346 56.6273 23.1668 56.6273 23.7523C56.6273 24.6305 57.7434 25.0696 59.9758 25.0696H63.7628C66.2077 25.0696 68.068 25.5952 69.3436 26.6464C70.6325 27.6975 71.277 29.241 71.277 31.2769C71.277 33.8848 70.1874 35.9074 68.0082 37.3444C65.8423 38.7815 62.7263 39.5 58.6603 39.5C55.551 39.5 53.1724 38.9545 51.5248 37.8634C49.8904 36.7856 49.0732 35.2687 49.0732 33.3127C49.0732 31.9688 49.4917 30.8444 50.3289 29.9396C51.166 29.0348 52.3951 28.3895 54.0162 28.0036C53.3917 27.7375 52.8469 27.305 52.3818 26.7062C51.9168 26.0942 51.6842 25.4488 51.6842 24.7702C51.6842 23.9186 51.93 23.2134 52.4217 22.6546C52.9133 22.0824 53.6242 21.5235 54.5544 20.978C53.3851 20.4724 52.4549 19.6607 51.764 18.543C51.0863 17.4253 50.7474 16.108 50.7474 14.5911C50.7474 12.1561 51.5381 10.2733 53.1193 8.94268C54.7005 7.61208 56.9594 6.94678 59.896 6.94678C60.5206 6.94678 61.258 7.00665 62.1084 7.12641C62.9721 7.23286 63.5236 7.31269 63.7628 7.36592H71.5361ZM54.3351 32.8337C54.3351 33.672 54.7338 34.3306 55.531 34.8096C56.3416 35.2886 57.471 35.5281 58.9194 35.5281C61.0986 35.5281 62.8061 35.2288 64.0418 34.63C65.2776 34.0312 65.8954 33.2129 65.8954 32.175C65.8954 31.3367 65.53 30.7579 64.7992 30.4386C64.0684 30.1192 62.9389 29.9596 61.4108 29.9596H58.2617C57.1455 29.9596 56.2087 30.219 55.4513 30.738C54.7072 31.2702 54.3351 31.9688 54.3351 32.8337ZM56.5475 14.6709C56.5475 15.8818 56.8199 16.8398 57.3647 17.545C57.9228 18.2503 58.7666 18.6029 59.896 18.6029C61.0388 18.6029 61.8759 18.2503 62.4074 17.545C62.9389 16.8398 63.2047 15.8818 63.2047 14.6709C63.2047 11.9831 62.1018 10.6392 59.896 10.6392C57.6637 10.6392 56.5475 11.9831 56.5475 14.6709Z" fill="#050505"/>
<path d="M89.9537 23.0537C89.9537 25.3424 89.1564 27.0855 87.5619 28.283C85.9807 29.4806 83.6088 30.0793 80.4463 30.0793C78.8252 30.0793 77.4433 29.9662 76.3005 29.74C75.1578 29.5271 74.0881 29.2078 73.0916 28.782V23.7523C74.221 24.2845 75.49 24.7303 76.8985 25.0896C78.3203 25.4488 79.5693 25.6285 80.6456 25.6285C82.8514 25.6285 83.9543 24.9898 83.9543 23.7124C83.9543 23.2334 83.8081 22.8475 83.5158 22.5548C83.2234 22.2487 82.7185 21.9094 82.001 21.5368C81.2834 21.151 80.3267 20.7052 79.1308 20.1996C77.4167 19.4811 76.1544 18.8158 75.3438 18.2037C74.5466 17.5916 73.9619 16.893 73.5898 16.108C73.2311 15.3096 73.0517 14.3316 73.0517 13.174C73.0517 11.1914 73.8157 9.66121 75.3438 8.58342C76.8852 7.49232 79.0644 6.94678 81.8814 6.94678C84.5655 6.94678 87.1765 7.53224 89.7145 8.70317L87.8808 13.0942C86.7646 12.6151 85.7215 12.2226 84.7515 11.9166C83.7815 11.6105 82.7916 11.4575 81.7817 11.4575C79.9879 11.4575 79.091 11.9432 79.091 12.9145C79.091 13.4601 79.3766 13.9324 79.948 14.3316C80.5327 14.7308 81.8017 15.3229 83.755 16.108C85.4956 16.8132 86.7713 17.4719 87.5818 18.0839C88.3924 18.696 88.9903 19.4012 89.3757 20.1996C89.761 20.998 89.9537 21.9493 89.9537 23.0537Z" fill="#050505"/>
<path d="M98.9835 20H94.1202L93.1037 0.5H100L98.9835 20ZM93.0239 26.826C93.0239 25.7083 93.3229 24.8634 93.9209 24.2912C94.5188 23.719 95.3892 23.433 96.5319 23.433C97.6348 23.433 98.4852 23.7257 99.0832 24.3112C99.6944 24.8966 100 25.7349 100 26.826C100 27.8772 99.6944 28.7088 99.0832 29.3209C98.4719 29.9197 97.6215 30.219 96.5319 30.219C95.4157 30.219 94.552 29.9263 93.9408 29.3408C93.3296 28.7421 93.0239 27.9038 93.0239 26.826Z" fill="#050505"/>
</svg>
